<?xml version="1.0" standalone="no"?>
<!DOCTYPE svg PUBLIC "-//W3C//DTD SVG 20010904//EN"
 "http://www.w3.org/TR/2001/REC-SVG-20010904/DTD/svg10.dtd">
<svg version="1.0" xmlns="http://www.w3.org/2000/svg"
 width="260.000000pt" height="260.000000pt" viewBox="0 0 260.000000 260.000000"
 preserveAspectRatio="xMidYMid meet">
<metadata>
Created by potrace 1.14, written by Peter Selinger 2001-2017
</metadata>
<g transform="translate(0.000000,260.000000) scale(0.100000,-0.100000)"
fill="#000000" stroke="none">
<path d="M1190 2265 c-14 -8 -42 -22 -62 -32 -24 -11 -41 -28 -48 -47 -6 -16
-17 -37 -25 -46 -36 -40 -33 -220 4 -250 11 -8 22 -30 26 -47 4 -19 13 -33 21
-33 8 0 20 -13 25 -30 6 -16 17 -30 25 -30 8 0 20 -11 26 -25 6 -14 19 -25 29
-25 21 0 29 -20 29 -76 0 -35 -6 -51 -25 -70 -14 -14 -25 -35 -25 -48 0 -12
-11 -32 -25 -44 -16 -14 -25 -32 -25 -50 0 -16 -9 -37 -19 -46 -11 -10 -25
-41 -31 -68 -5 -28 -19 -62 -30 -75 -13 -17 -20 -41 -20 -72 0 -25 -7 -79 -15
-120 -14 -67 -14 -84 0 -178 8 -57 15 -122 15 -144 0 -29 7 -50 25 -71 14 -16
25 -38 25 -49 0 -11 7 -22 15 -25 19 -8 20 -53 0 -60 -8 -3 -26 4 -41 15 -15
12 -35 21 -45 21 -10 0 -32 13 -49 30 -17 16 -40 30 -51 30 -12 0 -34 11 -51
25 -16 14 -40 25 -53 25 -13 0 -36 5 -50 12 -25 11 -26 15 -20 57 4 25 18 58
31 74 13 16 24 33 24 39 0 5 11 23 25 40 14 17 25 42 25 59 0 17 11 47 25 67
20 29 25 49 25 97 0 40 8 75 22 105 11 25 24 69 29 99 4 30 16 62 28 75 11 11
23 34 27 50 11 44 83 112 128 120 35 7 37 9 31 34 -4 15 -12 30 -18 34 -14 9
-57 0 -77 -17 -8 -6 -32 -19 -52 -29 -21 -9 -38 -22 -38 -28 0 -6 -11 -21 -25
-34 -14 -13 -25 -34 -25 -47 0 -15 -10 -31 -24 -40 -19 -13 -24 -27 -28 -72
-3 -39 -11 -61 -26 -75 -18 -17 -20 -30 -19 -93 1 -69 -15 -137 -34 -137 -4 0
-11 -21 -14 -47 -10 -70 -14 -80 -34 -86 -13 -3 -21 -18 -26 -46 -4 -24 -13
-45 -21 -48 -8 -3 -21 -18 -30 -34 -8 -16 -20 -29 -28 -29 -7 0 -23 -9 -36
-20 -28 -24 -25 -24 -46 -3 -15 16 -41 18 -206 19 -171 2 -189 0 -198 -16 -5
-9 -22 -20 -38 -23 -44 -9 -65 -34 -58 -70 3 -16 6 -47 6 -68 0 -29 4 -39 16
-39 9 0 18 -9 21 -20 3 -12 18 -27 34 -36 16 -8 29 -19 29 -24 0 -6 3 -9 8 -8
17 3 82 -33 92 -52 8 -15 21 -20 50 -20 27 0 45 -7 58 -21 13 -13 40 -23 82
-29 42 -6 69 -16 82 -29 19 -21 25 -21 758 -21 733 0 739 0 758 21 13 13 40
23 80 29 39 5 68 16 81 29 14 14 34 21 61 21 29 0 42 5 50 20 10 19 75 55 93
52 4 -1 7 2 7 8 0 5 13 16 29 24 16 9 31 24 34 36 3 11 12 20 21 20 11 0 16 9
16 33 0 17 3 48 6 68 7 42 -12 67 -58 76 -16 3 -33 13 -38 23 -8 15 -29 17
-198 16 -165 -1 -191 -3 -206 -18 -21 -22 -18 -22 -46 2 -13 11 -29 20 -36 20
-8 0 -20 14 -29 30 -9 17 -20 30 -25 30 -6 0 -15 20 -22 45 -7 26 -19 47 -29
50 -17 6 -21 16 -35 98 -3 20 -10 37 -14 37 -16 0 -30 64 -30 136 0 62 -3 76
-22 94 -16 15 -23 35 -26 79 -4 50 -8 60 -28 70 -17 8 -24 19 -24 40 0 20 -8
34 -25 45 -14 9 -25 23 -25 31 0 8 -17 22 -37 31 -21 10 -45 23 -53 29 -20 17
-63 26 -77 17 -6 -4 -14 -19 -18 -34 -6 -25 -4 -27 30 -34 46 -8 120 -76 131
-119 4 -17 18 -43 31 -58 15 -19 23 -41 23 -67 0 -21 11 -62 25 -92 18 -38 25
-70 25 -114 0 -48 5 -67 25 -94 14 -19 25 -47 25 -66 0 -20 11 -45 30 -69 17
-21 30 -42 30 -48 0 -6 9 -20 19 -31 10 -12 22 -40 26 -62 6 -36 3 -44 -17
-58 -12 -9 -35 -16 -49 -16 -15 0 -41 -11 -57 -25 -17 -14 -40 -25 -51 -25
-12 0 -32 -11 -45 -25 -13 -14 -39 -30 -57 -37 -19 -6 -40 -18 -48 -25 -32
-32 -68 11 -38 45 9 9 18 29 22 44 4 14 15 34 26 44 12 11 19 30 19 53 0 20 7
86 16 147 15 102 15 118 0 189 -9 42 -16 95 -16 117 0 24 -8 51 -20 68 -10 15
-22 46 -26 68 -4 23 -17 56 -30 74 -13 17 -24 42 -24 55 0 13 -11 33 -25 45
-14 12 -25 32 -25 44 0 13 -11 35 -26 49 -21 22 -25 32 -22 78 2 42 7 54 25
62 12 5 26 19 32 32 6 13 17 23 26 23 8 0 15 5 15 10 0 6 14 24 30 42 17 17
30 39 30 49 0 10 9 26 19 36 45 42 45 204 0 262 -11 13 -19 32 -19 42 0 12
-15 26 -42 39 -24 12 -54 28 -68 35 -34 20 -186 20 -220 0z m216 -84 c22 -15
52 -43 67 -60 24 -29 27 -41 27 -102 0 -61 -3 -73 -24 -92 -13 -12 -26 -32
-30 -43 -10 -32 -121 -134 -146 -134 -24 0 -140 105 -140 126 0 7 -13 27 -30
44 -27 27 -30 37 -30 91 0 75 17 108 81 159 48 38 55 40 118 40 59 0 73 -4
107 -29z m-85 -681 c10 -6 19 -19 19 -29 0 -10 11 -34 24 -54 13 -19 27 -49
31 -65 3 -17 16 -43 27 -57 11 -14 22 -44 24 -67 2 -23 10 -48 18 -57 30 -34
38 -95 34 -261 -3 -147 -5 -169 -24 -200 -12 -19 -24 -50 -28 -68 -3 -19 -17
-47 -31 -64 -14 -16 -25 -33 -25 -36 0 -14 -67 -52 -93 -52 -40 0 -132 97
-143 150 -3 14 -15 44 -27 68 -20 40 -22 56 -21 226 1 175 2 185 24 222 13 21
25 55 26 76 1 20 11 49 22 63 11 14 24 40 27 57 4 16 18 46 31 65 13 20 24 42
24 49 0 12 26 44 36 44 3 0 14 -5 25 -10z m-899 -826 c33 -6 39 -11 51 -48 12
-36 18 -41 46 -44 23 -2 44 5 70 22 46 32 59 32 103 3 19 -13 51 -27 72 -30
22 -3 45 -15 53 -27 8 -11 25 -20 37 -20 13 0 40 -13 61 -30 21 -16 45 -30 54
-30 9 0 36 -14 60 -30 24 -17 48 -30 53 -30 5 0 8 -15 6 -32 l-3 -33 -235 0
c-217 0 -238 2 -265 20 -17 10 -56 22 -88 26 -38 5 -66 14 -81 28 -12 12 -35
21 -50 21 -15 0 -37 10 -51 24 -13 14 -35 28 -47 31 -38 12 -117 67 -123 86
-12 36 24 77 78 89 40 10 150 12 199 4z m1951 -3 c48 -11 87 -47 87 -78 0 -16
-12 -30 -39 -47 -22 -14 -42 -30 -46 -36 -3 -5 -14 -10 -24 -10 -10 0 -35 -13
-56 -30 -21 -16 -49 -30 -63 -30 -14 0 -36 -9 -48 -21 -15 -14 -43 -23 -81
-28 -32 -4 -71 -16 -88 -26 -27 -18 -48 -20 -265 -20 l-235 0 -3 27 c-2 20 3
31 25 44 15 9 40 25 55 35 15 11 34 19 41 19 8 0 31 14 52 30 21 17 47 30 57
30 11 0 33 11 50 25 16 14 42 25 58 25 15 0 33 7 40 14 6 8 27 20 46 26 32 11
39 9 73 -14 51 -36 98 -35 111 2 16 44 26 56 51 63 36 10 158 10 202 0z
m-1042 -267 c17 -21 0 -49 -31 -49 -31 0 -48 28 -31 49 8 9 21 16 31 16 10 0
23 -7 31 -16z"/>
</g>
</svg>
